<?xml version="1.0" encoding="UTF-8"?>
<svg id="Warstwa_8" data-name="Warstwa 8" xmlns="http://www.w3.org/2000/svg" xmlns:xlink="http://www.w3.org/1999/xlink" viewBox="0 0 694.72 641.87">
  <defs>
    <style>
      .cls-1 {
        fill: url(#Gradient_bez_nazwy_33-2);
      }

      .cls-2 {
        fill: url(#Gradient_bez_nazwy_33-3);
      }

      .cls-3 {
        fill: url(#Gradient_bez_nazwy_33-4);
      }

      .cls-4 {
        fill: url(#Gradient_bez_nazwy_89);
      }

      .cls-5 {
        fill: url(#Gradient_bez_nazwy_80);
      }

      .cls-6 {
        fill: #70706f;
      }

      .cls-7 {
        fill: url(#Gradient_bez_nazwy_33-5);
      }

      .cls-8 {
        fill: url(#Gradient_bez_nazwy_33);
      }

      .cls-9 {
        fill: url(#Gradient_bez_nazwy_51);
      }
    </style>
    <linearGradient id="Gradient_bez_nazwy_80" data-name="Gradient bez nazwy 80" x1="422.47" y1="351.14" x2="562.49" y2="451.53" gradientTransform="translate(599.92 -245) rotate(54.36)" gradientUnits="userSpaceOnUse">
      <stop offset="0" stop-color="#ededed"/>
      <stop offset="0" stop-color="#f7f6f6"/>
      <stop offset=".08" stop-color="#dcdbdb"/>
      <stop offset=".27" stop-color="#a4a3a3"/>
      <stop offset=".43" stop-color="#7a7a79"/>
      <stop offset=".55" stop-color="#616160"/>
      <stop offset=".63" stop-color="#585857"/>
    </linearGradient>
    <linearGradient id="Gradient_bez_nazwy_51" data-name="Gradient bez nazwy 51" x1="561.96" y1="133.39" x2="660.96" y2="133.39" gradientTransform="translate(323.62 -356.16) rotate(51.61)" gradientUnits="userSpaceOnUse">
      <stop offset="0" stop-color="#fff"/>
      <stop offset=".32" stop-color="#fcfcfc"/>
      <stop offset=".47" stop-color="#f5f5f5"/>
      <stop offset=".59" stop-color="#e8e8e8"/>
      <stop offset=".69" stop-color="#d5d5d5"/>
      <stop offset=".78" stop-color="#bebebd"/>
      <stop offset=".86" stop-color="#a0a0a0"/>
      <stop offset=".93" stop-color="#7e7e7d"/>
      <stop offset="1" stop-color="#585857"/>
    </linearGradient>
    <linearGradient id="Gradient_bez_nazwy_89" data-name="Gradient bez nazwy 89" x1="533.36" y1="641.14" x2="497.33" y2="721.42" gradientTransform="translate(1933.28 271.67) rotate(-154.58) scale(1.65 -1.16) skewX(26.8)" gradientUnits="userSpaceOnUse">
      <stop offset="0" stop-color="#f7f6f6"/>
      <stop offset=".16" stop-color="#f2f1f1"/>
      <stop offset=".32" stop-color="#e6e5e5"/>
      <stop offset=".48" stop-color="#d2d1d1"/>
      <stop offset=".64" stop-color="#b5b5b4"/>
      <stop offset=".8" stop-color="#919090"/>
      <stop offset=".96" stop-color="#646463"/>
      <stop offset="1" stop-color="#585857"/>
    </linearGradient>
    <linearGradient id="Gradient_bez_nazwy_33" data-name="Gradient bez nazwy 33" x1="181.29" y1="345.14" x2="181.29" y2="196.11" gradientUnits="userSpaceOnUse">
      <stop offset="0" stop-color="#70706f"/>
      <stop offset=".04" stop-color="#848483"/>
      <stop offset=".1" stop-color="#a4a4a4"/>
      <stop offset=".18" stop-color="#c1c1c0"/>
      <stop offset=".26" stop-color="#d7d7d7"/>
      <stop offset=".36" stop-color="#e9e9e9"/>
      <stop offset=".47" stop-color="#f5f5f5"/>
      <stop offset=".63" stop-color="#fcfcfc"/>
      <stop offset="1" stop-color="#fff"/>
    </linearGradient>
    <linearGradient id="Gradient_bez_nazwy_33-2" data-name="Gradient bez nazwy 33" x1="278.38" y1="341.67" x2="278.38" y2="262.36" xlink:href="#Gradient_bez_nazwy_33"/>
    <linearGradient id="Gradient_bez_nazwy_33-3" data-name="Gradient bez nazwy 33" x1="352.64" y1="342.62" x2="352.64" y2="237.29" xlink:href="#Gradient_bez_nazwy_33"/>
    <linearGradient id="Gradient_bez_nazwy_33-4" data-name="Gradient bez nazwy 33" x1="428.87" y1="342.31" x2="428.87" y2="260.93" xlink:href="#Gradient_bez_nazwy_33"/>
    <linearGradient id="Gradient_bez_nazwy_33-5" data-name="Gradient bez nazwy 33" x1="493.16" y1="343.67" x2="493.16" y2="257.61" xlink:href="#Gradient_bez_nazwy_33"/>
  </defs>
  <path class="cls-6" d="M593.14,137.36c1.3-5.68,47.73-12.22,49.08-6.97s-61.28,155.49-63.21,154.51-20.37,5.74-20.37,5.74c0,0,33.2-147.6,34.5-153.28Z"/>
  <path class="cls-6" d="M524.67,393.22c5.94-13.04,29.67-81.33,30.33-82.39.66-1.07,3.35-1.21,10.5-3.53,6.75-2.02,15.27-7.11,15.51-6.64s-5.31,9.82-7.17,13.23c-2.69,5.42-3.39,6.55-4.87,10.99,4.42-1.69,7.92-3.06,15.59-6.82,4.21-2.06,15.93-8.07,15.87-7.45s-20.34,30.07-22.88,35.19c-2.45,4.48-3.7,5.34-9.78,17.74,9.4-2,27.86-6.54,28.2-5.99.34.55-14.31,17.59-15.98,20.55-26.27,35.5-66.45,94.48-67.84,94.82-1.39.34,6.31-19.59,10.14-30.34,6.88-18.1,11.8-32.45,18.14-48.19-.43.1-19.33,9.39-19.33,9.39,0,0-2.14,1.52-1-1.11l4.58-9.45Z"/>
  <path class="cls-5" d="M529.18,395.54c5.94-13.04,29.67-81.33,30.33-82.39.66-1.07,3.35-1.21,10.5-3.53,6.75-2.02,15.27-7.11,15.51-6.64s-5.31,9.82-7.17,13.23c-2.69,5.42-3.39,6.55-4.87,10.99,4.42-1.69,7.92-3.06,15.59-6.82,4.21-2.06,15.93-8.07,15.87-7.45s-20.34,30.07-22.88,35.19c-2.45,4.48-3.7,5.34-9.78,17.74,9.4-2,27.86-6.54,28.2-5.99.34.55-14.31,17.59-15.98,20.55-26.27,35.5-66.45,94.48-67.84,94.82-1.39.34,6.31-19.59,10.14-30.34,6.88-18.1,11.8-32.45,18.14-48.19-.43.1-19.33,9.39-19.33,9.39,0,0-2.14,1.52-1-1.11l4.58-9.45Z"/>
  <path class="cls-9" d="M596.81,144.76c1.31-5.28,47.91-11.38,49.26-6.5,1.35,4.88-61.56,144.54-63.5,143.63s-20.44,5.34-20.44,5.34c0,0,33.38-137.19,34.68-142.47Z"/>
  <path class="cls-6" d="M405.63,375.83c54.46-.67,94.12.31,94.02-1.37-.17-2.89-116.88-7.33-198.04-8.86,0,0-56.35-1.08-163.54,14.44-2.47.36-16.88,2.52-16.82,6.23.04,2.16,5.01,5.84,5.01,5.84,113.8-11.78,209.03-15.41,279.36-16.28Z"/>
  <path class="cls-4" d="M407.43,372.06c54.46-.67,94.12.31,94.02-1.37-.17-2.89-116.88-7.33-198.04-8.86,0,0-56.35-1.08-163.54,14.44-2.47.36-16.88,2.52-16.82,6.23.04,2.16,5.01,5.84,5.01,5.84,113.8-11.78,209.03-15.41,279.36-16.28Z"/>
  <g>
    <path class="cls-6" d="M138.62,338.37c-8.08-2.83-14.31-6.78-18.68-11.86-4.38-5.08-6.56-10.96-6.56-17.64,0-5.65,1.55-10.8,4.67-15.42,3.11-4.63,7.32-8.29,12.62-10.99,5.3-2.7,11.15-4.05,17.55-4.05,5.89,0,10.86,1.13,14.9,3.37,4.04,2.25,6.56,5.37,7.57,9.35-8.75,0-15.74,1.77-20.95,5.3-5.22,3.54-7.83,8.32-7.83,14.36,0,5.53,2.19,9.96,6.56,13.3,4.37,3.34,10.18,5.01,17.42,5.01,8.92,0,16.28-2.28,22.09-6.84,5.81-4.56,8.71-10.31,8.71-17.26,0-6.04-2.19-11.76-6.56-17.16-4.38-5.4-10.94-11.95-19.69-19.67-9.09-7.97-15.95-14.81-20.58-20.53-4.63-5.72-6.94-11.98-6.94-18.8s2.44-12.69,7.32-18.03c4.88-5.33,11.61-9.54,20.2-12.63,8.58-3.09,18.26-4.63,29.03-4.63,13.63,0,24.53,2.44,32.69,7.33,8.16,4.89,12.24,11.44,12.24,19.66,0,5.4-1.77,9.77-5.3,13.11-3.53,3.34-8.17,5.01-13.89,5.01-6.4,0-11.53-1.99-15.4-5.98,3.19-1.8,5.72-4.18,7.57-7.13,1.85-2.96,2.78-6.04,2.78-9.25,0-4.11-1.6-7.39-4.8-9.83-3.2-2.44-7.57-3.66-13.13-3.66-6.73,0-12.24,1.83-16.54,5.49-4.29,3.66-6.44,8.32-6.44,13.98,0,5.14,1.93,9.93,5.81,14.36,3.87,4.43,9.93,10.12,18.18,17.06,6.73,5.53,12.16,10.28,16.28,14.27,4.12,3.99,7.66,8.58,10.6,13.78,2.94,5.21,4.42,10.83,4.42,16.87,0,8.23-2.99,15.68-8.96,22.36-5.98,6.68-14.14,11.95-24.49,15.81-10.35,3.86-21.84,5.78-34.46,5.78-10.6,0-19.94-1.41-28.02-4.24Z"/>
    <path class="cls-6" d="M284.49,268.39h-11.63c-3.88,0-6.75.16-8.62.48-1.87.32-2.8,1.01-2.8,2.06,0,.21.38.45,1.14.71.76.27,1.14,1.19,1.14,2.78,0,2.75-1.11,4.84-3.32,6.27-2.22,1.43-4.85,2.14-7.89,2.14-2.63,0-4.88-.61-6.75-1.82-1.87-1.21-2.8-2.94-2.8-5.16s1-4.6,3.01-7.14c2.01-2.54,4.85-4.65,8.52-6.34,3.67-1.69,7.86-2.54,12.57-2.54h53.38l-50.89,67.1c.83,0,2.35.11,4.57.32,4.71.42,8.45.64,11.22.64,5.95,0,9.21-1.06,9.76-3.17-1.25-.1-2.22-.45-2.91-1.03-.69-.58-1.04-1.35-1.04-2.3,0-1.69,1.04-3.25,3.12-4.68,2.08-1.43,4.91-2.14,8.52-2.14,3.04,0,5.33.69,6.85,2.06,1.52,1.38,2.28,3.23,2.28,5.55,0,2.54-1.04,5.13-3.12,7.77-2.08,2.65-5.06,4.84-8.93,6.58-3.88,1.74-8.31,2.62-13.29,2.62h-55.05l52.97-70.75Z"/>
    <path class="cls-6" d="M323.44,335.33c-4.09-3.17-6.13-7.93-6.13-14.28,0-2.64.56-6.08,1.66-10.31l12.46-44.58h-6.85l1.66-6.34h6.85l6.23-21.89,30.74-3.17-7.06,25.06h12.46l-1.66,6.34h-12.46l-13.29,47.59c-.55,1.59-.83,3.28-.83,5.08,0,2.12.66,3.62,1.97,4.52,1.31.9,3.5,1.35,6.54,1.35,4.01,0,7.75-1.29,11.22-3.89,3.46-2.59,5.95-5.95,7.48-10.07h8.72c-5.12,11.42-11.7,19.17-19.73,23.24-8.03,4.07-15.99,6.11-23.89,6.11-6.65,0-12.02-1.59-16.1-4.76Z"/>
    <path class="cls-6" d="M383.36,333.74c-5.96-4.02-8.93-10.36-8.93-19.03,0-7.3,1.87-15.31,5.61-24.03,3.74-8.72,9.83-16.28,18.28-22.68,8.44-6.4,19.25-9.6,32.4-9.6,16.34,0,25.13,7.14,26.38,21.41,3.04-.53,5.75-1.82,8.1-3.89,2.35-2.06,4.57-4.41,6.65-7.06h6.65c-3.74,5.71-7.06,10.18-9.97,13.4-2.91,3.23-6.72,5.84-11.42,7.85-.83,9.94-3.5,18.67-8,26.17-4.5,7.51-10.35,13.3-17.55,17.37-7.2,4.07-15.16,6.11-23.89,6.11-10.25,0-18.35-2.01-24.3-6.03ZM430.31,315.98c4.43-6.35,7.48-14.17,9.14-23.48-3.32-.95-4.99-3.33-4.99-7.14,0-4.12,1.94-6.87,5.82-8.25-.28-3.38-1.01-5.73-2.18-7.06-1.18-1.32-3.08-1.98-5.71-1.98-4.57,0-8.93,2.51-13.09,7.54-4.15,5.02-7.51,11.1-10.07,18.24-2.56,7.14-3.84,13.4-3.84,18.8,0,5.08.76,8.49,2.28,10.23,1.52,1.74,4.29,2.62,8.31,2.62,5.12,0,9.9-3.17,14.33-9.52Z"/>
    <path class="cls-6" d="M467.5,338.69c-4.66-1.63-8.26-3.91-10.79-6.85-2.53-2.93-3.79-6.33-3.79-10.19,0-3.26.9-6.23,2.7-8.91,1.8-2.67,4.23-4.79,7.29-6.35,3.06-1.56,6.44-2.34,10.13-2.34,3.4,0,6.27.65,8.6,1.95,2.33,1.3,3.79,3.1,4.37,5.4-5.05,0-9.09,1.02-12.1,3.06-3.01,2.04-4.52,4.81-4.52,8.29,0,3.19,1.26,5.75,3.79,7.68,2.53,1.93,5.88,2.9,10.06,2.9,5.15,0,9.4-1.32,12.76-3.95,3.35-2.63,5.03-5.96,5.03-9.96,0-3.49-1.26-6.79-3.79-9.91-2.53-3.12-6.32-6.9-11.37-11.36-5.25-4.6-9.21-8.55-11.88-11.86-2.67-3.3-4.01-6.92-4.01-10.85s1.41-7.33,4.23-10.41c2.82-3.08,6.71-5.51,11.66-7.29,4.96-1.78,10.54-2.67,16.76-2.67,7.87,0,14.16,1.41,18.88,4.23,4.71,2.82,7.07,6.61,7.07,11.36,0,3.12-1.02,5.64-3.06,7.57-2.04,1.93-4.72,2.89-8.02,2.89-3.69,0-6.66-1.15-8.89-3.45,1.85-1.04,3.3-2.41,4.37-4.12,1.07-1.71,1.6-3.49,1.6-5.34,0-2.37-.92-4.27-2.77-5.68-1.85-1.41-4.37-2.11-7.58-2.11-3.89,0-7.07,1.06-9.55,3.17-2.48,2.11-3.72,4.81-3.72,8.07,0,2.97,1.12,5.73,3.35,8.29,2.23,2.56,5.73,5.85,10.5,9.85,3.89,3.19,7.02,5.94,9.4,8.24,2.38,2.3,4.42,4.95,6.12,7.96,1.7,3.01,2.55,6.25,2.55,9.74,0,4.75-1.73,9.06-5.18,12.91-3.45,3.86-8.16,6.9-14.14,9.13-5.98,2.23-12.61,3.34-19.9,3.34-6.12,0-11.52-.82-16.18-2.45Z"/>
  </g>
  <g>
    <path class="cls-8" d="M141.02,340.9c-8.08-2.83-14.31-6.78-18.68-11.86-4.38-5.08-6.56-10.96-6.56-17.64,0-5.65,1.55-10.8,4.67-15.42,3.11-4.63,7.32-8.29,12.62-10.99,5.3-2.7,11.15-4.05,17.55-4.05,5.89,0,10.86,1.13,14.9,3.37,4.04,2.25,6.56,5.37,7.57,9.35-8.75,0-15.74,1.77-20.95,5.3-5.22,3.54-7.83,8.32-7.83,14.36,0,5.53,2.19,9.96,6.56,13.3,4.37,3.34,10.18,5.01,17.42,5.01,8.92,0,16.28-2.28,22.09-6.84,5.81-4.56,8.71-10.31,8.71-17.26,0-6.04-2.19-11.76-6.56-17.16-4.38-5.4-10.94-11.95-19.69-19.67-9.09-7.97-15.95-14.81-20.58-20.53-4.63-5.72-6.94-11.98-6.94-18.8s2.44-12.69,7.32-18.03c4.88-5.33,11.61-9.54,20.2-12.63,8.58-3.09,18.26-4.63,29.03-4.63,13.63,0,24.53,2.44,32.69,7.33,8.16,4.89,12.24,11.44,12.24,19.66,0,5.4-1.77,9.77-5.3,13.11-3.53,3.34-8.17,5.01-13.89,5.01-6.4,0-11.53-1.99-15.4-5.98,3.19-1.8,5.72-4.18,7.57-7.13,1.85-2.96,2.78-6.04,2.78-9.25,0-4.11-1.6-7.39-4.8-9.83-3.2-2.44-7.57-3.66-13.13-3.66-6.73,0-12.24,1.83-16.54,5.49-4.29,3.66-6.44,8.32-6.44,13.98,0,5.14,1.93,9.93,5.81,14.36,3.87,4.43,9.93,10.12,18.18,17.06,6.73,5.53,12.16,10.28,16.28,14.27,4.12,3.99,7.66,8.58,10.6,13.78,2.94,5.21,4.42,10.83,4.42,16.87,0,8.23-2.99,15.68-8.96,22.36-5.98,6.68-14.14,11.95-24.49,15.81-10.35,3.86-21.84,5.78-34.46,5.78-10.6,0-19.94-1.41-28.02-4.24Z"/>
    <path class="cls-1" d="M286.89,270.92h-11.63c-3.88,0-6.75.16-8.62.48-1.87.32-2.8,1.01-2.8,2.06,0,.21.38.45,1.14.71.76.27,1.14,1.19,1.14,2.78,0,2.75-1.11,4.84-3.32,6.27-2.22,1.43-4.85,2.14-7.89,2.14-2.63,0-4.88-.61-6.75-1.82-1.87-1.21-2.8-2.94-2.8-5.16s1-4.6,3.01-7.14c2.01-2.54,4.85-4.65,8.52-6.34,3.67-1.69,7.86-2.54,12.57-2.54h53.38l-50.89,67.1c.83,0,2.35.11,4.57.32,4.71.42,8.45.64,11.22.64,5.95,0,9.21-1.06,9.76-3.17-1.25-.1-2.22-.45-2.91-1.03-.69-.58-1.04-1.35-1.04-2.3,0-1.69,1.04-3.25,3.12-4.68,2.08-1.43,4.91-2.14,8.52-2.14,3.04,0,5.33.69,6.85,2.06,1.52,1.38,2.28,3.23,2.28,5.55,0,2.54-1.04,5.13-3.12,7.77-2.08,2.65-5.06,4.84-8.93,6.58-3.88,1.74-8.31,2.62-13.29,2.62h-55.05l52.97-70.75Z"/>
    <path class="cls-2" d="M325.84,337.86c-4.09-3.17-6.13-7.93-6.13-14.28,0-2.64.56-6.08,1.66-10.31l12.46-44.58h-6.85l1.66-6.34h6.85l6.23-21.89,30.74-3.17-7.06,25.06h12.46l-1.66,6.34h-12.46l-13.29,47.59c-.55,1.59-.83,3.28-.83,5.08,0,2.12.66,3.62,1.97,4.52,1.31.9,3.5,1.35,6.54,1.35,4.01,0,7.75-1.29,11.22-3.89,3.46-2.59,5.95-5.95,7.48-10.07h8.72c-5.12,11.42-11.7,19.17-19.73,23.24-8.03,4.07-15.99,6.11-23.89,6.11-6.65,0-12.02-1.59-16.1-4.76Z"/>
    <path class="cls-3" d="M385.77,336.28c-5.96-4.02-8.93-10.36-8.93-19.03,0-7.3,1.87-15.31,5.61-24.03,3.74-8.72,9.83-16.28,18.28-22.68,8.44-6.4,19.25-9.6,32.4-9.6,16.34,0,25.13,7.14,26.38,21.41,3.04-.53,5.75-1.82,8.1-3.89,2.35-2.06,4.57-4.41,6.65-7.06h6.65c-3.74,5.71-7.06,10.18-9.97,13.4-2.91,3.23-6.72,5.84-11.42,7.85-.83,9.94-3.5,18.67-8,26.17-4.5,7.51-10.35,13.3-17.55,17.37-7.2,4.07-15.16,6.11-23.89,6.11-10.25,0-18.35-2.01-24.3-6.03ZM432.71,318.51c4.43-6.35,7.48-14.17,9.14-23.48-3.32-.95-4.99-3.33-4.99-7.14,0-4.12,1.94-6.87,5.82-8.25-.28-3.38-1.01-5.73-2.18-7.06-1.18-1.32-3.08-1.98-5.71-1.98-4.57,0-8.93,2.51-13.09,7.54-4.15,5.02-7.51,11.1-10.07,18.24-2.56,7.14-3.84,13.4-3.84,18.8,0,5.08.76,8.49,2.28,10.23,1.52,1.74,4.29,2.62,8.31,2.62,5.12,0,9.9-3.17,14.33-9.52Z"/>
    <path class="cls-7" d="M469.9,341.23c-4.66-1.63-8.26-3.91-10.79-6.85-2.53-2.93-3.79-6.33-3.79-10.19,0-3.26.9-6.23,2.7-8.91,1.8-2.67,4.23-4.79,7.29-6.35,3.06-1.56,6.44-2.34,10.13-2.34,3.4,0,6.27.65,8.6,1.95,2.33,1.3,3.79,3.1,4.37,5.4-5.05,0-9.09,1.02-12.1,3.06-3.01,2.04-4.52,4.81-4.52,8.29,0,3.19,1.26,5.75,3.79,7.68,2.53,1.93,5.88,2.9,10.06,2.9,5.15,0,9.4-1.32,12.76-3.95,3.35-2.63,5.03-5.96,5.03-9.96,0-3.49-1.26-6.79-3.79-9.91-2.53-3.12-6.32-6.9-11.37-11.36-5.25-4.6-9.21-8.55-11.88-11.86-2.67-3.3-4.01-6.92-4.01-10.85s1.41-7.33,4.23-10.41c2.82-3.08,6.71-5.51,11.66-7.29,4.96-1.78,10.54-2.67,16.76-2.67,7.87,0,14.16,1.41,18.88,4.23,4.71,2.82,7.07,6.61,7.07,11.36,0,3.12-1.02,5.64-3.06,7.57-2.04,1.93-4.72,2.89-8.02,2.89-3.69,0-6.66-1.15-8.89-3.45,1.85-1.04,3.3-2.41,4.37-4.12,1.07-1.71,1.6-3.49,1.6-5.34,0-2.37-.92-4.27-2.77-5.68-1.85-1.41-4.37-2.11-7.58-2.11-3.89,0-7.07,1.06-9.55,3.17-2.48,2.11-3.72,4.81-3.72,8.07,0,2.97,1.12,5.73,3.35,8.29,2.23,2.56,5.73,5.85,10.5,9.85,3.89,3.19,7.02,5.94,9.4,8.24,2.38,2.3,4.42,4.95,6.12,7.96,1.7,3.01,2.55,6.25,2.55,9.74,0,4.75-1.73,9.06-5.18,12.91-3.45,3.86-8.16,6.9-14.14,9.13-5.98,2.23-12.61,3.34-19.9,3.34-6.12,0-11.52-.82-16.18-2.45Z"/>
  </g>
</svg>